<?xml version="1.0" encoding="utf-8"?>
<!-- Generator: Adobe Illustrator 16.0.0, SVG Export Plug-In . SVG Version: 6.00 Build 0)  -->
<!DOCTYPE svg PUBLIC "-//W3C//DTD SVG 1.1//EN" "http://www.w3.org/Graphics/SVG/1.1/DTD/svg11.dtd">
<svg version="1.1" id="Layer_1" xmlns="http://www.w3.org/2000/svg" xmlns:xlink="http://www.w3.org/1999/xlink" x="0px" y="0px"
	 width="32px" height="32px" viewBox="0 0 32 32" enable-background="new 0 0 32 32" xml:space="preserve">
<path fill-rule="evenodd" clip-rule="evenodd" fill="#FFFFFF" d="M31.1,31.1c-1.2,1.2-3.1,1.2-4.2,0l-5.3-5.3
	C19.4,27.2,16.8,28,14,28C6.3,28,0,21.7,0,14C0,6.3,6.3,0,14,0c7.7,0,14,6.3,14,14c0,2.8-0.8,5.4-2.2,7.5l5.3,5.3
	C32.2,28,32.2,29.9,31.1,31.1z M14,4C8.5,4,4,8.5,4,14c0,5.5,4.5,10,10,10c5.5,0,10-4.5,10-10C24,8.5,19.5,4,14,4z"/>
</svg>
